<svg width="512" height="512" viewBox="0 0 512 512" fill="none" xmlns="http://www.w3.org/2000/svg">
  <rect width="512" height="512" rx="112" fill="#071015"/>
  <path d="M256 96C220.654 96 192 124.654 192 160V176.832C155.045 188.064 128 222.434 128 263.04C128 313.081 168.559 353.64 218.6 353.64H293.4C343.441 353.64 384 313.081 384 263.04C384 222.434 356.955 188.064 320 176.832V160C320 124.654 291.346 96 256 96Z" fill="#14A06F"/>
  <path d="M208 158.4C208 131.893 229.493 110.4 256 110.4C282.507 110.4 304 131.893 304 158.4V174.479C288.954 171.161 272.711 169.44 256 169.44C239.289 169.44 223.046 171.161 208 174.479V158.4Z" fill="#0B5FFF"/>
  <circle cx="256" cy="263.04" r="60.48" fill="#F3F6F4"/>
  <path d="M256 223.68V263.04L288.96 295.2" stroke="#071015" stroke-width="24" stroke-linecap="round" stroke-linejoin="round"/>
</svg>

